<svg width="1854" height="361" viewBox="0 0 1854 361" fill="none" xmlns="http://www.w3.org/2000/svg">
<path d="M500.74 2H2V315.32H148.47L187.405 358.625H1852.34V47.8518H539.675L500.74 2Z" fill="#9D9D9D" stroke="black" stroke-width="3"/>
<path d="M487.762 12.9811L517.426 46.0962" stroke="black" stroke-width="3"/>
<path d="M202.238 351.775L172.573 318.66" stroke="black" stroke-width="3"/>
<line x1="17.8324" y1="60.4277" x2="17.8324" y2="67.4277" stroke="#686868" stroke-width="2"/>
<line x1="27.8324" y1="56.9277" x2="27.8324" y2="70.9277" stroke="#686868" stroke-width="2"/>
<line x1="37.8324" y1="60.4277" x2="37.8324" y2="67.4277" stroke="#686868" stroke-width="2"/>
<line x1="47.8324" y1="56.9277" x2="47.8324" y2="70.9277" stroke="#686868" stroke-width="2"/>
<line x1="57.8324" y1="60.4277" x2="57.8324" y2="67.4277" stroke="#686868" stroke-width="2"/>
<line x1="67.8324" y1="56.9277" x2="67.8324" y2="70.9277" stroke="#686868" stroke-width="2"/>
<line x1="77.8324" y1="60.4277" x2="77.8324" y2="67.4277" stroke="#686868" stroke-width="2"/>
<line x1="87.8324" y1="56.9277" x2="87.8324" y2="70.9277" stroke="#686868" stroke-width="2"/>
<line x1="97.8324" y1="60.4277" x2="97.8324" y2="67.4277" stroke="#686868" stroke-width="2"/>
<line x1="107.832" y1="56.9277" x2="107.832" y2="70.9277" stroke="#686868" stroke-width="2"/>
<line x1="117.832" y1="60.4277" x2="117.832" y2="67.4277" stroke="#686868" stroke-width="2"/>
<line x1="127.832" y1="56.9277" x2="127.832" y2="70.9277" stroke="#686868" stroke-width="2"/>
<line x1="137.832" y1="60.4277" x2="137.832" y2="67.4277" stroke="#686868" stroke-width="2"/>
<line x1="147.832" y1="56.9277" x2="147.832" y2="70.9277" stroke="#686868" stroke-width="2"/>
<line x1="157.832" y1="60.4277" x2="157.832" y2="67.4277" stroke="#686868" stroke-width="2"/>
<line x1="167.832" y1="56.9277" x2="167.832" y2="70.9277" stroke="#686868" stroke-width="2"/>
<line x1="177.832" y1="60.4277" x2="177.832" y2="67.4277" stroke="#686868" stroke-width="2"/>
<line x1="187.832" y1="56.9277" x2="187.832" y2="70.9277" stroke="#686868" stroke-width="2"/>
<line x1="197.832" y1="60.4277" x2="197.832" y2="67.4277" stroke="#686868" stroke-width="2"/>
<line x1="207.832" y1="56.9277" x2="207.832" y2="70.9277" stroke="#686868" stroke-width="2"/>
<line x1="217.832" y1="60.4277" x2="217.832" y2="67.4277" stroke="#686868" stroke-width="2"/>
<line x1="227.832" y1="56.9277" x2="227.832" y2="70.9277" stroke="#686868" stroke-width="2"/>
<line x1="237.832" y1="60.4277" x2="237.832" y2="67.4277" stroke="#686868" stroke-width="2"/>
<line x1="247.832" y1="56.9277" x2="247.832" y2="70.9277" stroke="#686868" stroke-width="2"/>
<line x1="257.832" y1="60.4277" x2="257.832" y2="67.4277" stroke="#686868" stroke-width="2"/>
<line x1="267.832" y1="56.9277" x2="267.832" y2="70.9277" stroke="#686868" stroke-width="2"/>
<line x1="277.832" y1="60.4277" x2="277.832" y2="67.4277" stroke="#686868" stroke-width="2"/>
<line x1="287.832" y1="56.9277" x2="287.832" y2="70.9277" stroke="#686868" stroke-width="2"/>
<line x1="297.832" y1="60.4277" x2="297.832" y2="67.4277" stroke="#686868" stroke-width="2"/>
<line x1="307.832" y1="56.9277" x2="307.832" y2="70.9277" stroke="#686868" stroke-width="2"/>
<line x1="317.832" y1="60.4277" x2="317.832" y2="67.4277" stroke="#686868" stroke-width="2"/>
<line x1="327.832" y1="56.9277" x2="327.832" y2="70.9277" stroke="#686868" stroke-width="2"/>
<line x1="337.832" y1="60.4277" x2="337.832" y2="67.4277" stroke="#686868" stroke-width="2"/>
<line x1="347.832" y1="56.9277" x2="347.832" y2="70.9277" stroke="#686868" stroke-width="2"/>
<line x1="357.832" y1="60.4277" x2="357.832" y2="67.4277" stroke="#686868" stroke-width="2"/>
<line x1="367.832" y1="56.9277" x2="367.832" y2="70.9277" stroke="#686868" stroke-width="2"/>
<line x1="377.832" y1="60.4277" x2="377.832" y2="67.4277" stroke="#686868" stroke-width="2"/>
<line x1="387.832" y1="56.9277" x2="387.832" y2="70.9277" stroke="#686868" stroke-width="2"/>
<line x1="397.832" y1="60.4277" x2="397.832" y2="67.4277" stroke="#686868" stroke-width="2"/>
<line x1="407.832" y1="56.9277" x2="407.832" y2="70.9277" stroke="#686868" stroke-width="2"/>
<line x1="417.832" y1="60.4277" x2="417.832" y2="67.4277" stroke="#686868" stroke-width="2"/>
<line x1="427.832" y1="56.9277" x2="427.832" y2="70.9277" stroke="#686868" stroke-width="2"/>
<line x1="437.832" y1="60.4277" x2="437.832" y2="67.4277" stroke="#686868" stroke-width="2"/>
<line x1="447.832" y1="56.9277" x2="447.832" y2="70.9277" stroke="#686868" stroke-width="2"/>
<line x1="457.832" y1="60.4277" x2="457.832" y2="67.4277" stroke="#686868" stroke-width="2"/>
<line x1="467.832" y1="56.9277" x2="467.832" y2="70.9277" stroke="#686868" stroke-width="2"/>
<line x1="477.832" y1="60.4277" x2="477.832" y2="67.4277" stroke="#686868" stroke-width="2"/>
<line x1="487.832" y1="56.9277" x2="487.832" y2="70.9277" stroke="#686868" stroke-width="2"/>
<line x1="497.832" y1="60.4277" x2="497.832" y2="67.4277" stroke="#686868" stroke-width="2"/>
<line x1="507.832" y1="56.9277" x2="507.832" y2="70.9277" stroke="#686868" stroke-width="2"/>
<line x1="517.832" y1="60.4277" x2="517.832" y2="67.4277" stroke="#686868" stroke-width="2"/>
<line x1="527.832" y1="56.9277" x2="527.832" y2="70.9277" stroke="#686868" stroke-width="2"/>
<line x1="537.832" y1="60.4277" x2="537.832" y2="67.4277" stroke="#686868" stroke-width="2"/>
<line x1="547.832" y1="56.9277" x2="547.832" y2="70.9277" stroke="#686868" stroke-width="2"/>
<line x1="557.832" y1="60.4277" x2="557.832" y2="67.4277" stroke="#686868" stroke-width="2"/>
<line x1="567.832" y1="56.9277" x2="567.832" y2="70.9277" stroke="#686868" stroke-width="2"/>
<line x1="577.832" y1="60.4277" x2="577.832" y2="67.4277" stroke="#686868" stroke-width="2"/>
<line x1="587.832" y1="56.9277" x2="587.832" y2="70.9277" stroke="#686868" stroke-width="2"/>
<line x1="597.832" y1="60.4277" x2="597.832" y2="67.4277" stroke="#686868" stroke-width="2"/>
<line x1="607.832" y1="56.9277" x2="607.832" y2="70.9277" stroke="#686868" stroke-width="2"/>
<line x1="617.832" y1="60.4277" x2="617.832" y2="67.4277" stroke="#686868" stroke-width="2"/>
<line x1="627.832" y1="56.9277" x2="627.832" y2="70.9277" stroke="#686868" stroke-width="2"/>
<line x1="637.832" y1="60.4277" x2="637.832" y2="67.4277" stroke="#686868" stroke-width="2"/>
<line x1="647.832" y1="56.9277" x2="647.832" y2="70.9277" stroke="#686868" stroke-width="2"/>
<line x1="657.832" y1="60.4277" x2="657.832" y2="67.4277" stroke="#686868" stroke-width="2"/>
<line x1="667.832" y1="56.9277" x2="667.832" y2="70.9277" stroke="#686868" stroke-width="2"/>
<line x1="677.832" y1="60.4277" x2="677.832" y2="67.4277" stroke="#686868" stroke-width="2"/>
<line x1="687.832" y1="56.9277" x2="687.832" y2="70.9277" stroke="#686868" stroke-width="2"/>
<line x1="697.832" y1="60.4277" x2="697.832" y2="67.4277" stroke="#686868" stroke-width="2"/>
<line x1="707.832" y1="56.9277" x2="707.832" y2="70.9277" stroke="#686868" stroke-width="2"/>
<line x1="717.832" y1="60.4277" x2="717.832" y2="67.4277" stroke="#686868" stroke-width="2"/>
<line x1="727.832" y1="56.9277" x2="727.832" y2="70.9277" stroke="#686868" stroke-width="2"/>
<line x1="737.832" y1="60.4277" x2="737.832" y2="67.4277" stroke="#686868" stroke-width="2"/>
<line x1="747.832" y1="56.9277" x2="747.832" y2="70.9277" stroke="#686868" stroke-width="2"/>
<line x1="757.832" y1="60.4277" x2="757.832" y2="67.4277" stroke="#686868" stroke-width="2"/>
<line x1="767.832" y1="56.9277" x2="767.832" y2="70.9277" stroke="#686868" stroke-width="2"/>
<line x1="777.832" y1="60.4277" x2="777.832" y2="67.4277" stroke="#686868" stroke-width="2"/>
<line x1="787.832" y1="56.9277" x2="787.832" y2="70.9277" stroke="#686868" stroke-width="2"/>
<line x1="797.832" y1="60.4277" x2="797.832" y2="67.4277" stroke="#686868" stroke-width="2"/>
<line x1="807.832" y1="56.9277" x2="807.832" y2="70.9277" stroke="#686868" stroke-width="2"/>
<line x1="817.832" y1="60.4277" x2="817.832" y2="67.4277" stroke="#686868" stroke-width="2"/>
<line x1="827.832" y1="56.9277" x2="827.832" y2="70.9277" stroke="#686868" stroke-width="2"/>
<line x1="837.832" y1="60.4277" x2="837.832" y2="67.4277" stroke="#686868" stroke-width="2"/>
<line x1="847.832" y1="56.9277" x2="847.832" y2="70.9277" stroke="#686868" stroke-width="2"/>
<line x1="857.832" y1="60.4277" x2="857.832" y2="67.4277" stroke="#686868" stroke-width="2"/>
<line x1="867.832" y1="56.9277" x2="867.832" y2="70.9277" stroke="#686868" stroke-width="2"/>
<line x1="877.832" y1="60.4277" x2="877.832" y2="67.4277" stroke="#686868" stroke-width="2"/>
<line x1="887.832" y1="56.9277" x2="887.832" y2="70.9277" stroke="#686868" stroke-width="2"/>
<line x1="897.832" y1="60.4277" x2="897.832" y2="67.4277" stroke="#686868" stroke-width="2"/>
<line x1="907.832" y1="56.9277" x2="907.832" y2="70.9277" stroke="#686868" stroke-width="2"/>
<line x1="917.832" y1="60.4277" x2="917.832" y2="67.4277" stroke="#686868" stroke-width="2"/>
<line x1="927.832" y1="56.9277" x2="927.832" y2="70.9277" stroke="#686868" stroke-width="2"/>
<line x1="937.832" y1="60.4277" x2="937.832" y2="67.4277" stroke="#686868" stroke-width="2"/>
<line x1="947.832" y1="56.9277" x2="947.832" y2="70.9277" stroke="#686868" stroke-width="2"/>
<line x1="957.832" y1="60.4277" x2="957.832" y2="67.4277" stroke="#686868" stroke-width="2"/>
<line x1="967.832" y1="56.9277" x2="967.832" y2="70.9277" stroke="#686868" stroke-width="2"/>
<line x1="977.832" y1="60.4277" x2="977.832" y2="67.4277" stroke="#686868" stroke-width="2"/>
<line x1="987.832" y1="56.9277" x2="987.832" y2="70.9277" stroke="#686868" stroke-width="2"/>
<line x1="997.832" y1="60.4277" x2="997.832" y2="67.4277" stroke="#686868" stroke-width="2"/>
<line x1="1007.83" y1="56.9277" x2="1007.83" y2="70.9277" stroke="#686868" stroke-width="2"/>
<line x1="1017.83" y1="60.4277" x2="1017.83" y2="67.4277" stroke="#686868" stroke-width="2"/>
<line x1="1027.83" y1="56.9277" x2="1027.83" y2="70.9277" stroke="#686868" stroke-width="2"/>
<line x1="1037.83" y1="60.4277" x2="1037.83" y2="67.4277" stroke="#686868" stroke-width="2"/>
<line x1="1047.83" y1="56.9277" x2="1047.83" y2="70.9277" stroke="#686868" stroke-width="2"/>
<line x1="1057.83" y1="60.4277" x2="1057.83" y2="67.4277" stroke="#686868" stroke-width="2"/>
<line x1="1067.83" y1="56.9277" x2="1067.83" y2="70.9277" stroke="#686868" stroke-width="2"/>
<line x1="1077.83" y1="60.4277" x2="1077.83" y2="67.4277" stroke="#686868" stroke-width="2"/>
<line x1="1087.83" y1="56.9277" x2="1087.83" y2="70.9277" stroke="#686868" stroke-width="2"/>
<line x1="1097.83" y1="60.4277" x2="1097.83" y2="67.4277" stroke="#686868" stroke-width="2"/>
<line x1="1107.83" y1="56.9277" x2="1107.83" y2="70.9277" stroke="#686868" stroke-width="2"/>
<line x1="1117.83" y1="60.4277" x2="1117.83" y2="67.4277" stroke="#686868" stroke-width="2"/>
<line x1="1127.83" y1="56.9277" x2="1127.83" y2="70.9277" stroke="#686868" stroke-width="2"/>
<line x1="1137.83" y1="60.4277" x2="1137.83" y2="67.4277" stroke="#686868" stroke-width="2"/>
<line x1="1147.83" y1="56.9277" x2="1147.83" y2="70.9277" stroke="#686868" stroke-width="2"/>
<line x1="1157.83" y1="60.4277" x2="1157.83" y2="67.4277" stroke="#686868" stroke-width="2"/>
<line x1="1167.83" y1="56.9277" x2="1167.83" y2="70.9277" stroke="#686868" stroke-width="2"/>
<line x1="1177.83" y1="60.4277" x2="1177.83" y2="67.4277" stroke="#686868" stroke-width="2"/>
<line x1="1187.83" y1="56.9277" x2="1187.83" y2="70.9277" stroke="#686868" stroke-width="2"/>
<line x1="1197.83" y1="60.4277" x2="1197.83" y2="67.4277" stroke="#686868" stroke-width="2"/>
<line x1="1207.83" y1="56.9277" x2="1207.83" y2="70.9277" stroke="#686868" stroke-width="2"/>
<line x1="1217.83" y1="60.4277" x2="1217.83" y2="67.4277" stroke="#686868" stroke-width="2"/>
<line x1="1227.83" y1="56.9277" x2="1227.83" y2="70.9277" stroke="#686868" stroke-width="2"/>
<line x1="1237.83" y1="60.4277" x2="1237.83" y2="67.4277" stroke="#686868" stroke-width="2"/>
<line x1="1247.83" y1="56.9277" x2="1247.83" y2="70.9277" stroke="#686868" stroke-width="2"/>
<line x1="1257.83" y1="60.4277" x2="1257.83" y2="67.4277" stroke="#686868" stroke-width="2"/>
<line x1="1267.83" y1="56.9277" x2="1267.83" y2="70.9277" stroke="#686868" stroke-width="2"/>
<line x1="1277.83" y1="60.4277" x2="1277.83" y2="67.4277" stroke="#686868" stroke-width="2"/>
<line x1="1287.83" y1="56.9277" x2="1287.83" y2="70.9277" stroke="#686868" stroke-width="2"/>
<line x1="1297.83" y1="60.4277" x2="1297.83" y2="67.4277" stroke="#686868" stroke-width="2"/>
<line x1="1307.83" y1="56.9277" x2="1307.83" y2="70.9277" stroke="#686868" stroke-width="2"/>
<line x1="1317.83" y1="60.4277" x2="1317.83" y2="67.4277" stroke="#686868" stroke-width="2"/>
<line x1="1327.83" y1="56.9277" x2="1327.83" y2="70.9277" stroke="#686868" stroke-width="2"/>
<line x1="1337.83" y1="60.4277" x2="1337.83" y2="67.4277" stroke="#686868" stroke-width="2"/>
<line x1="1347.83" y1="56.9277" x2="1347.83" y2="70.9277" stroke="#686868" stroke-width="2"/>
<line x1="1357.83" y1="60.4277" x2="1357.83" y2="67.4277" stroke="#686868" stroke-width="2"/>
<line x1="1367.83" y1="56.9277" x2="1367.83" y2="70.9277" stroke="#686868" stroke-width="2"/>
<line x1="1377.83" y1="60.4277" x2="1377.83" y2="67.4277" stroke="#686868" stroke-width="2"/>
<line x1="1387.83" y1="56.9277" x2="1387.83" y2="70.9277" stroke="#686868" stroke-width="2"/>
<line x1="1397.83" y1="60.4277" x2="1397.83" y2="67.4277" stroke="#686868" stroke-width="2"/>
<line x1="1407.83" y1="56.9277" x2="1407.83" y2="70.9277" stroke="#686868" stroke-width="2"/>
<line x1="1417.83" y1="60.4277" x2="1417.83" y2="67.4277" stroke="#686868" stroke-width="2"/>
<line x1="1427.83" y1="56.9277" x2="1427.83" y2="70.9277" stroke="#686868" stroke-width="2"/>
<line x1="1437.83" y1="60.4277" x2="1437.83" y2="67.4277" stroke="#686868" stroke-width="2"/>
<line x1="1447.83" y1="56.9277" x2="1447.83" y2="70.9277" stroke="#686868" stroke-width="2"/>
<line x1="1457.83" y1="60.4277" x2="1457.83" y2="67.4277" stroke="#686868" stroke-width="2"/>
<line x1="1467.83" y1="56.9277" x2="1467.83" y2="70.9277" stroke="#686868" stroke-width="2"/>
<line x1="1477.83" y1="60.4277" x2="1477.83" y2="67.4277" stroke="#686868" stroke-width="2"/>
<line x1="1487.83" y1="56.9277" x2="1487.83" y2="70.9277" stroke="#686868" stroke-width="2"/>
<line x1="1497.83" y1="60.4277" x2="1497.83" y2="67.4277" stroke="#686868" stroke-width="2"/>
<line x1="1507.83" y1="56.9277" x2="1507.83" y2="70.9277" stroke="#686868" stroke-width="2"/>
<line x1="1517.83" y1="60.4277" x2="1517.83" y2="67.4277" stroke="#686868" stroke-width="2"/>
<line x1="1527.83" y1="56.9277" x2="1527.83" y2="70.9277" stroke="#686868" stroke-width="2"/>
<line x1="1537.83" y1="60.4277" x2="1537.83" y2="67.4277" stroke="#686868" stroke-width="2"/>
<line x1="1547.83" y1="56.9277" x2="1547.83" y2="70.9277" stroke="#686868" stroke-width="2"/>
<line x1="1557.83" y1="60.4277" x2="1557.83" y2="67.4277" stroke="#686868" stroke-width="2"/>
<line x1="1567.83" y1="56.9277" x2="1567.83" y2="70.9277" stroke="#686868" stroke-width="2"/>
<line x1="1577.83" y1="60.4277" x2="1577.83" y2="67.4277" stroke="#686868" stroke-width="2"/>
<line x1="1587.83" y1="56.9277" x2="1587.83" y2="70.9277" stroke="#686868" stroke-width="2"/>
<line x1="1597.83" y1="60.4277" x2="1597.83" y2="67.4277" stroke="#686868" stroke-width="2"/>
<line x1="1607.83" y1="56.9277" x2="1607.83" y2="70.9277" stroke="#686868" stroke-width="2"/>
<line x1="1617.83" y1="60.4277" x2="1617.83" y2="67.4277" stroke="#686868" stroke-width="2"/>
<line x1="1627.83" y1="56.9277" x2="1627.83" y2="70.9277" stroke="#686868" stroke-width="2"/>
<line x1="1637.83" y1="60.4277" x2="1637.83" y2="67.4277" stroke="#686868" stroke-width="2"/>
<line x1="1647.83" y1="56.9277" x2="1647.83" y2="70.9277" stroke="#686868" stroke-width="2"/>
<line x1="1657.83" y1="60.4277" x2="1657.83" y2="67.4277" stroke="#686868" stroke-width="2"/>
<line x1="1667.83" y1="56.9277" x2="1667.83" y2="70.9277" stroke="#686868" stroke-width="2"/>
<line x1="1677.83" y1="60.4277" x2="1677.83" y2="67.4277" stroke="#686868" stroke-width="2"/>
<line x1="1687.83" y1="56.9277" x2="1687.83" y2="70.9277" stroke="#686868" stroke-width="2"/>
<line x1="1697.83" y1="60.4277" x2="1697.83" y2="67.4277" stroke="#686868" stroke-width="2"/>
<line x1="1707.83" y1="56.9277" x2="1707.83" y2="70.9277" stroke="#686868" stroke-width="2"/>
<line x1="1717.83" y1="60.4277" x2="1717.83" y2="67.4277" stroke="#686868" stroke-width="2"/>
<line x1="1727.83" y1="56.9277" x2="1727.83" y2="70.9277" stroke="#686868" stroke-width="2"/>
<line x1="1737.83" y1="60.4277" x2="1737.83" y2="67.4277" stroke="#686868" stroke-width="2"/>
<line x1="1747.83" y1="56.9277" x2="1747.83" y2="70.9277" stroke="#686868" stroke-width="2"/>
<line x1="1757.83" y1="60.4277" x2="1757.83" y2="67.4277" stroke="#686868" stroke-width="2"/>
<line x1="1767.83" y1="56.9277" x2="1767.83" y2="70.9277" stroke="#686868" stroke-width="2"/>
<line x1="1777.83" y1="60.4277" x2="1777.83" y2="67.4277" stroke="#686868" stroke-width="2"/>
<line x1="1787.83" y1="56.9277" x2="1787.83" y2="70.9277" stroke="#686868" stroke-width="2"/>
<line x1="1797.83" y1="60.4277" x2="1797.83" y2="67.4277" stroke="#686868" stroke-width="2"/>
<line x1="1807.83" y1="56.9277" x2="1807.83" y2="70.9277" stroke="#686868" stroke-width="2"/>
<line x1="1817.83" y1="60.4277" x2="1817.83" y2="67.4277" stroke="#686868" stroke-width="2"/>
<line x1="1827.83" y1="56.9277" x2="1827.83" y2="70.9277" stroke="#686868" stroke-width="2"/>
<line x1="1837.83" y1="60.4277" x2="1837.83" y2="67.4277" stroke="#686868" stroke-width="2"/>
<line x1="1847.83" y1="56.9277" x2="1847.83" y2="70.9277" stroke="#686868" stroke-width="2"/>
<line x1="17.8324" y1="297.329" x2="17.8324" y2="304.329" stroke="#686868" stroke-width="2"/>
<line x1="27.8324" y1="293.829" x2="27.8324" y2="307.829" stroke="#686868" stroke-width="2"/>
<line x1="37.8324" y1="297.329" x2="37.8324" y2="304.329" stroke="#686868" stroke-width="2"/>
<line x1="47.8324" y1="293.829" x2="47.8324" y2="307.829" stroke="#686868" stroke-width="2"/>
<line x1="57.8324" y1="297.329" x2="57.8324" y2="304.329" stroke="#686868" stroke-width="2"/>
<line x1="67.8324" y1="293.829" x2="67.8324" y2="307.829" stroke="#686868" stroke-width="2"/>
<line x1="77.8324" y1="297.329" x2="77.8324" y2="304.329" stroke="#686868" stroke-width="2"/>
<line x1="87.8324" y1="293.829" x2="87.8324" y2="307.829" stroke="#686868" stroke-width="2"/>
<line x1="97.8324" y1="297.329" x2="97.8324" y2="304.329" stroke="#686868" stroke-width="2"/>
<line x1="107.832" y1="293.829" x2="107.832" y2="307.829" stroke="#686868" stroke-width="2"/>
<line x1="117.832" y1="297.329" x2="117.832" y2="304.329" stroke="#686868" stroke-width="2"/>
<line x1="127.832" y1="293.829" x2="127.832" y2="307.829" stroke="#686868" stroke-width="2"/>
<line x1="137.832" y1="297.329" x2="137.832" y2="304.329" stroke="#686868" stroke-width="2"/>
<line x1="147.832" y1="293.829" x2="147.832" y2="307.829" stroke="#686868" stroke-width="2"/>
<line x1="157.832" y1="297.329" x2="157.832" y2="304.329" stroke="#686868" stroke-width="2"/>
<line x1="167.832" y1="293.829" x2="167.832" y2="307.829" stroke="#686868" stroke-width="2"/>
<line x1="177.832" y1="297.329" x2="177.832" y2="304.329" stroke="#686868" stroke-width="2"/>
<line x1="187.832" y1="293.829" x2="187.832" y2="307.829" stroke="#686868" stroke-width="2"/>
<line x1="197.832" y1="297.329" x2="197.832" y2="304.329" stroke="#686868" stroke-width="2"/>
<line x1="207.832" y1="293.829" x2="207.832" y2="307.829" stroke="#686868" stroke-width="2"/>
<line x1="217.832" y1="297.329" x2="217.832" y2="304.329" stroke="#686868" stroke-width="2"/>
<line x1="227.832" y1="293.829" x2="227.832" y2="307.829" stroke="#686868" stroke-width="2"/>
<line x1="237.832" y1="297.329" x2="237.832" y2="304.329" stroke="#686868" stroke-width="2"/>
<line x1="247.832" y1="293.829" x2="247.832" y2="307.829" stroke="#686868" stroke-width="2"/>
<line x1="257.832" y1="297.329" x2="257.832" y2="304.329" stroke="#686868" stroke-width="2"/>
<line x1="267.832" y1="293.829" x2="267.832" y2="307.829" stroke="#686868" stroke-width="2"/>
<line x1="277.832" y1="297.329" x2="277.832" y2="304.329" stroke="#686868" stroke-width="2"/>
<line x1="287.832" y1="293.829" x2="287.832" y2="307.829" stroke="#686868" stroke-width="2"/>
<line x1="297.832" y1="297.329" x2="297.832" y2="304.329" stroke="#686868" stroke-width="2"/>
<line x1="307.832" y1="293.829" x2="307.832" y2="307.829" stroke="#686868" stroke-width="2"/>
<line x1="317.832" y1="297.329" x2="317.832" y2="304.329" stroke="#686868" stroke-width="2"/>
<line x1="327.832" y1="293.829" x2="327.832" y2="307.829" stroke="#686868" stroke-width="2"/>
<line x1="337.832" y1="297.329" x2="337.832" y2="304.329" stroke="#686868" stroke-width="2"/>
<line x1="347.832" y1="293.829" x2="347.832" y2="307.829" stroke="#686868" stroke-width="2"/>
<line x1="357.832" y1="297.329" x2="357.832" y2="304.329" stroke="#686868" stroke-width="2"/>
<line x1="367.832" y1="293.829" x2="367.832" y2="307.829" stroke="#686868" stroke-width="2"/>
<line x1="377.832" y1="297.329" x2="377.832" y2="304.329" stroke="#686868" stroke-width="2"/>
<line x1="387.832" y1="293.829" x2="387.832" y2="307.829" stroke="#686868" stroke-width="2"/>
<line x1="397.832" y1="297.329" x2="397.832" y2="304.329" stroke="#686868" stroke-width="2"/>
<line x1="407.832" y1="293.829" x2="407.832" y2="307.829" stroke="#686868" stroke-width="2"/>
<line x1="417.832" y1="297.329" x2="417.832" y2="304.329" stroke="#686868" stroke-width="2"/>
<line x1="427.832" y1="293.829" x2="427.832" y2="307.829" stroke="#686868" stroke-width="2"/>
<line x1="437.832" y1="297.329" x2="437.832" y2="304.329" stroke="#686868" stroke-width="2"/>
<line x1="447.832" y1="293.829" x2="447.832" y2="307.829" stroke="#686868" stroke-width="2"/>
<line x1="457.832" y1="297.329" x2="457.832" y2="304.329" stroke="#686868" stroke-width="2"/>
<line x1="467.832" y1="293.829" x2="467.832" y2="307.829" stroke="#686868" stroke-width="2"/>
<line x1="477.832" y1="297.329" x2="477.832" y2="304.329" stroke="#686868" stroke-width="2"/>
<line x1="487.832" y1="293.829" x2="487.832" y2="307.829" stroke="#686868" stroke-width="2"/>
<line x1="497.832" y1="297.329" x2="497.832" y2="304.329" stroke="#686868" stroke-width="2"/>
<line x1="507.832" y1="293.829" x2="507.832" y2="307.829" stroke="#686868" stroke-width="2"/>
<line x1="517.832" y1="297.329" x2="517.832" y2="304.329" stroke="#686868" stroke-width="2"/>
<line x1="527.832" y1="293.829" x2="527.832" y2="307.829" stroke="#686868" stroke-width="2"/>
<line x1="537.832" y1="297.329" x2="537.832" y2="304.329" stroke="#686868" stroke-width="2"/>
<line x1="547.832" y1="293.829" x2="547.832" y2="307.829" stroke="#686868" stroke-width="2"/>
<line x1="557.832" y1="297.329" x2="557.832" y2="304.329" stroke="#686868" stroke-width="2"/>
<line x1="567.832" y1="293.829" x2="567.832" y2="307.829" stroke="#686868" stroke-width="2"/>
<line x1="577.832" y1="297.329" x2="577.832" y2="304.329" stroke="#686868" stroke-width="2"/>
<line x1="587.832" y1="293.829" x2="587.832" y2="307.829" stroke="#686868" stroke-width="2"/>
<line x1="597.832" y1="297.329" x2="597.832" y2="304.329" stroke="#686868" stroke-width="2"/>
<line x1="607.832" y1="293.829" x2="607.832" y2="307.829" stroke="#686868" stroke-width="2"/>
<line x1="617.832" y1="297.329" x2="617.832" y2="304.329" stroke="#686868" stroke-width="2"/>
<line x1="627.832" y1="293.829" x2="627.832" y2="307.829" stroke="#686868" stroke-width="2"/>
<line x1="637.832" y1="297.329" x2="637.832" y2="304.329" stroke="#686868" stroke-width="2"/>
<line x1="647.832" y1="293.829" x2="647.832" y2="307.829" stroke="#686868" stroke-width="2"/>
<line x1="657.832" y1="297.329" x2="657.832" y2="304.329" stroke="#686868" stroke-width="2"/>
<line x1="667.832" y1="293.829" x2="667.832" y2="307.829" stroke="#686868" stroke-width="2"/>
<line x1="677.832" y1="297.329" x2="677.832" y2="304.329" stroke="#686868" stroke-width="2"/>
<line x1="687.832" y1="293.829" x2="687.832" y2="307.829" stroke="#686868" stroke-width="2"/>
<line x1="697.832" y1="297.329" x2="697.832" y2="304.329" stroke="#686868" stroke-width="2"/>
<line x1="707.832" y1="293.829" x2="707.832" y2="307.829" stroke="#686868" stroke-width="2"/>
<line x1="717.832" y1="297.329" x2="717.832" y2="304.329" stroke="#686868" stroke-width="2"/>
<line x1="727.832" y1="293.829" x2="727.832" y2="307.829" stroke="#686868" stroke-width="2"/>
<line x1="737.832" y1="297.329" x2="737.832" y2="304.329" stroke="#686868" stroke-width="2"/>
<line x1="747.832" y1="293.829" x2="747.832" y2="307.829" stroke="#686868" stroke-width="2"/>
<line x1="757.832" y1="297.329" x2="757.832" y2="304.329" stroke="#686868" stroke-width="2"/>
<line x1="767.832" y1="293.829" x2="767.832" y2="307.829" stroke="#686868" stroke-width="2"/>
<line x1="777.832" y1="297.329" x2="777.832" y2="304.329" stroke="#686868" stroke-width="2"/>
<line x1="787.832" y1="293.829" x2="787.832" y2="307.829" stroke="#686868" stroke-width="2"/>
<line x1="797.832" y1="297.329" x2="797.832" y2="304.329" stroke="#686868" stroke-width="2"/>
<line x1="807.832" y1="293.829" x2="807.832" y2="307.829" stroke="#686868" stroke-width="2"/>
<line x1="817.832" y1="297.329" x2="817.832" y2="304.329" stroke="#686868" stroke-width="2"/>
<line x1="827.832" y1="293.829" x2="827.832" y2="307.829" stroke="#686868" stroke-width="2"/>
<line x1="837.832" y1="297.329" x2="837.832" y2="304.329" stroke="#686868" stroke-width="2"/>
<line x1="847.832" y1="293.829" x2="847.832" y2="307.829" stroke="#686868" stroke-width="2"/>
<line x1="857.832" y1="297.329" x2="857.832" y2="304.329" stroke="#686868" stroke-width="2"/>
<line x1="867.832" y1="293.829" x2="867.832" y2="307.829" stroke="#686868" stroke-width="2"/>
<line x1="877.832" y1="297.329" x2="877.832" y2="304.329" stroke="#686868" stroke-width="2"/>
<line x1="887.832" y1="293.829" x2="887.832" y2="307.829" stroke="#686868" stroke-width="2"/>
<line x1="897.832" y1="297.329" x2="897.832" y2="304.329" stroke="#686868" stroke-width="2"/>
<line x1="907.832" y1="293.829" x2="907.832" y2="307.829" stroke="#686868" stroke-width="2"/>
<line x1="917.832" y1="297.329" x2="917.832" y2="304.329" stroke="#686868" stroke-width="2"/>
<line x1="927.832" y1="293.829" x2="927.832" y2="307.829" stroke="#686868" stroke-width="2"/>
<line x1="937.832" y1="297.329" x2="937.832" y2="304.329" stroke="#686868" stroke-width="2"/>
<line x1="947.832" y1="293.829" x2="947.832" y2="307.829" stroke="#686868" stroke-width="2"/>
<line x1="957.832" y1="297.329" x2="957.832" y2="304.329" stroke="#686868" stroke-width="2"/>
<line x1="967.832" y1="293.829" x2="967.832" y2="307.829" stroke="#686868" stroke-width="2"/>
<line x1="977.832" y1="297.329" x2="977.832" y2="304.329" stroke="#686868" stroke-width="2"/>
<line x1="987.832" y1="293.829" x2="987.832" y2="307.829" stroke="#686868" stroke-width="2"/>
<line x1="997.832" y1="297.329" x2="997.832" y2="304.329" stroke="#686868" stroke-width="2"/>
<line x1="1007.83" y1="293.829" x2="1007.83" y2="307.829" stroke="#686868" stroke-width="2"/>
<line x1="1017.83" y1="297.329" x2="1017.83" y2="304.329" stroke="#686868" stroke-width="2"/>
<line x1="1027.83" y1="293.829" x2="1027.83" y2="307.829" stroke="#686868" stroke-width="2"/>
<line x1="1037.83" y1="297.329" x2="1037.83" y2="304.329" stroke="#686868" stroke-width="2"/>
<line x1="1047.83" y1="293.829" x2="1047.83" y2="307.829" stroke="#686868" stroke-width="2"/>
<line x1="1057.83" y1="297.329" x2="1057.83" y2="304.329" stroke="#686868" stroke-width="2"/>
<line x1="1067.83" y1="293.829" x2="1067.83" y2="307.829" stroke="#686868" stroke-width="2"/>
<line x1="1077.83" y1="297.329" x2="1077.83" y2="304.329" stroke="#686868" stroke-width="2"/>
<line x1="1087.83" y1="293.829" x2="1087.83" y2="307.829" stroke="#686868" stroke-width="2"/>
<line x1="1097.83" y1="297.329" x2="1097.83" y2="304.329" stroke="#686868" stroke-width="2"/>
<line x1="1107.83" y1="293.829" x2="1107.83" y2="307.829" stroke="#686868" stroke-width="2"/>
<line x1="1117.83" y1="297.329" x2="1117.83" y2="304.329" stroke="#686868" stroke-width="2"/>
<line x1="1127.83" y1="293.829" x2="1127.83" y2="307.829" stroke="#686868" stroke-width="2"/>
<line x1="1137.83" y1="297.329" x2="1137.83" y2="304.329" stroke="#686868" stroke-width="2"/>
<line x1="1147.83" y1="293.829" x2="1147.83" y2="307.829" stroke="#686868" stroke-width="2"/>
<line x1="1157.83" y1="297.329" x2="1157.83" y2="304.329" stroke="#686868" stroke-width="2"/>
<line x1="1167.83" y1="293.829" x2="1167.83" y2="307.829" stroke="#686868" stroke-width="2"/>
<line x1="1177.83" y1="297.329" x2="1177.83" y2="304.329" stroke="#686868" stroke-width="2"/>
<line x1="1187.83" y1="293.829" x2="1187.83" y2="307.829" stroke="#686868" stroke-width="2"/>
<line x1="1197.83" y1="297.329" x2="1197.83" y2="304.329" stroke="#686868" stroke-width="2"/>
<line x1="1207.83" y1="293.829" x2="1207.83" y2="307.829" stroke="#686868" stroke-width="2"/>
<line x1="1217.83" y1="297.329" x2="1217.83" y2="304.329" stroke="#686868" stroke-width="2"/>
<line x1="1227.83" y1="293.829" x2="1227.83" y2="307.829" stroke="#686868" stroke-width="2"/>
<line x1="1237.83" y1="297.329" x2="1237.83" y2="304.329" stroke="#686868" stroke-width="2"/>
<line x1="1247.83" y1="293.829" x2="1247.83" y2="307.829" stroke="#686868" stroke-width="2"/>
<line x1="1257.83" y1="297.329" x2="1257.83" y2="304.329" stroke="#686868" stroke-width="2"/>
<line x1="1267.83" y1="293.829" x2="1267.83" y2="307.829" stroke="#686868" stroke-width="2"/>
<line x1="1277.83" y1="297.329" x2="1277.83" y2="304.329" stroke="#686868" stroke-width="2"/>
<line x1="1287.83" y1="293.829" x2="1287.83" y2="307.829" stroke="#686868" stroke-width="2"/>
<line x1="1297.83" y1="297.329" x2="1297.83" y2="304.329" stroke="#686868" stroke-width="2"/>
<line x1="1307.83" y1="293.829" x2="1307.83" y2="307.829" stroke="#686868" stroke-width="2"/>
<line x1="1317.83" y1="297.329" x2="1317.83" y2="304.329" stroke="#686868" stroke-width="2"/>
<line x1="1327.83" y1="293.829" x2="1327.83" y2="307.829" stroke="#686868" stroke-width="2"/>
<line x1="1337.83" y1="297.329" x2="1337.83" y2="304.329" stroke="#686868" stroke-width="2"/>
<line x1="1347.83" y1="293.829" x2="1347.83" y2="307.829" stroke="#686868" stroke-width="2"/>
<line x1="1357.83" y1="297.329" x2="1357.83" y2="304.329" stroke="#686868" stroke-width="2"/>
<line x1="1367.83" y1="293.829" x2="1367.83" y2="307.829" stroke="#686868" stroke-width="2"/>
<line x1="1377.83" y1="297.329" x2="1377.83" y2="304.329" stroke="#686868" stroke-width="2"/>
<line x1="1387.83" y1="293.829" x2="1387.83" y2="307.829" stroke="#686868" stroke-width="2"/>
<line x1="1397.83" y1="297.329" x2="1397.83" y2="304.329" stroke="#686868" stroke-width="2"/>
<line x1="1407.83" y1="293.829" x2="1407.83" y2="307.829" stroke="#686868" stroke-width="2"/>
<line x1="1417.83" y1="297.329" x2="1417.83" y2="304.329" stroke="#686868" stroke-width="2"/>
<line x1="1427.83" y1="293.829" x2="1427.83" y2="307.829" stroke="#686868" stroke-width="2"/>
<line x1="1437.83" y1="297.329" x2="1437.83" y2="304.329" stroke="#686868" stroke-width="2"/>
<line x1="1447.83" y1="293.829" x2="1447.83" y2="307.829" stroke="#686868" stroke-width="2"/>
<line x1="1457.83" y1="297.329" x2="1457.83" y2="304.329" stroke="#686868" stroke-width="2"/>
<line x1="1467.83" y1="293.829" x2="1467.83" y2="307.829" stroke="#686868" stroke-width="2"/>
<line x1="1477.83" y1="297.329" x2="1477.83" y2="304.329" stroke="#686868" stroke-width="2"/>
<line x1="1487.83" y1="293.829" x2="1487.83" y2="307.829" stroke="#686868" stroke-width="2"/>
<line x1="1497.83" y1="297.329" x2="1497.83" y2="304.329" stroke="#686868" stroke-width="2"/>
<line x1="1507.83" y1="293.829" x2="1507.83" y2="307.829" stroke="#686868" stroke-width="2"/>
<line x1="1517.83" y1="297.329" x2="1517.83" y2="304.329" stroke="#686868" stroke-width="2"/>
<line x1="1527.83" y1="293.829" x2="1527.83" y2="307.829" stroke="#686868" stroke-width="2"/>
<line x1="1537.83" y1="297.329" x2="1537.83" y2="304.329" stroke="#686868" stroke-width="2"/>
<line x1="1547.83" y1="293.829" x2="1547.83" y2="307.829" stroke="#686868" stroke-width="2"/>
<line x1="1557.83" y1="297.329" x2="1557.83" y2="304.329" stroke="#686868" stroke-width="2"/>
<line x1="1567.83" y1="293.829" x2="1567.83" y2="307.829" stroke="#686868" stroke-width="2"/>
<line x1="1577.83" y1="297.329" x2="1577.83" y2="304.329" stroke="#686868" stroke-width="2"/>
<line x1="1587.83" y1="293.829" x2="1587.83" y2="307.829" stroke="#686868" stroke-width="2"/>
<line x1="1597.83" y1="297.329" x2="1597.83" y2="304.329" stroke="#686868" stroke-width="2"/>
<line x1="1607.83" y1="293.829" x2="1607.83" y2="307.829" stroke="#686868" stroke-width="2"/>
<line x1="1617.83" y1="297.329" x2="1617.83" y2="304.329" stroke="#686868" stroke-width="2"/>
<line x1="1627.83" y1="293.829" x2="1627.83" y2="307.829" stroke="#686868" stroke-width="2"/>
<line x1="1637.83" y1="297.329" x2="1637.83" y2="304.329" stroke="#686868" stroke-width="2"/>
<line x1="1647.83" y1="293.829" x2="1647.83" y2="307.829" stroke="#686868" stroke-width="2"/>
<line x1="1657.83" y1="297.329" x2="1657.83" y2="304.329" stroke="#686868" stroke-width="2"/>
<line x1="1667.83" y1="293.829" x2="1667.83" y2="307.829" stroke="#686868" stroke-width="2"/>
<line x1="1677.83" y1="297.329" x2="1677.83" y2="304.329" stroke="#686868" stroke-width="2"/>
<line x1="1687.83" y1="293.829" x2="1687.83" y2="307.829" stroke="#686868" stroke-width="2"/>
<line x1="1697.83" y1="297.329" x2="1697.83" y2="304.329" stroke="#686868" stroke-width="2"/>
<line x1="1707.83" y1="293.829" x2="1707.83" y2="307.829" stroke="#686868" stroke-width="2"/>
<line x1="1717.83" y1="297.329" x2="1717.83" y2="304.329" stroke="#686868" stroke-width="2"/>
<line x1="1727.83" y1="293.829" x2="1727.83" y2="307.829" stroke="#686868" stroke-width="2"/>
<line x1="1737.83" y1="297.329" x2="1737.83" y2="304.329" stroke="#686868" stroke-width="2"/>
<line x1="1747.83" y1="293.829" x2="1747.83" y2="307.829" stroke="#686868" stroke-width="2"/>
<line x1="1757.83" y1="297.329" x2="1757.83" y2="304.329" stroke="#686868" stroke-width="2"/>
<line x1="1767.83" y1="293.829" x2="1767.83" y2="307.829" stroke="#686868" stroke-width="2"/>
<line x1="1777.83" y1="297.329" x2="1777.83" y2="304.329" stroke="#686868" stroke-width="2"/>
<line x1="1787.83" y1="293.829" x2="1787.83" y2="307.829" stroke="#686868" stroke-width="2"/>
<line x1="1797.83" y1="297.329" x2="1797.83" y2="304.329" stroke="#686868" stroke-width="2"/>
<line x1="1807.83" y1="293.829" x2="1807.83" y2="307.829" stroke="#686868" stroke-width="2"/>
<line x1="1817.83" y1="297.329" x2="1817.83" y2="304.329" stroke="#686868" stroke-width="2"/>
<line x1="1827.83" y1="293.829" x2="1827.83" y2="307.829" stroke="#686868" stroke-width="2"/>
<line x1="1837.83" y1="297.329" x2="1837.83" y2="304.329" stroke="#686868" stroke-width="2"/>
<line x1="1847.83" y1="293.829" x2="1847.83" y2="307.829" stroke="#686868" stroke-width="2"/>
<line x1="11.4162" y1="292.358" x2="16.4162" y2="292.358" stroke="#686868" stroke-width="2"/>
<line x1="9.41621" y1="286.358" x2="18.4162" y2="286.358" stroke="#686868" stroke-width="2"/>
<line x1="11.4162" y1="280.358" x2="16.4162" y2="280.358" stroke="#686868" stroke-width="2"/>
<line x1="9.41621" y1="274.358" x2="18.4162" y2="274.358" stroke="#686868" stroke-width="2"/>
<line x1="11.4162" y1="268.358" x2="16.4162" y2="268.358" stroke="#686868" stroke-width="2"/>
<line x1="9.41621" y1="262.358" x2="18.4162" y2="262.358" stroke="#686868" stroke-width="2"/>
<line x1="11.4162" y1="256.358" x2="16.4162" y2="256.358" stroke="#686868" stroke-width="2"/>
<line x1="9.41621" y1="250.358" x2="18.4162" y2="250.358" stroke="#686868" stroke-width="2"/>
<line x1="11.4162" y1="244.358" x2="16.4162" y2="244.358" stroke="#686868" stroke-width="2"/>
<line x1="9.41621" y1="238.358" x2="18.4162" y2="238.358" stroke="#686868" stroke-width="2"/>
<line x1="11.4162" y1="232.358" x2="16.4162" y2="232.358" stroke="#686868" stroke-width="2"/>
<line x1="9.41621" y1="226.358" x2="18.4162" y2="226.358" stroke="#686868" stroke-width="2"/>
<line x1="11.4162" y1="220.358" x2="16.4162" y2="220.358" stroke="#686868" stroke-width="2"/>
<line x1="9.41621" y1="214.358" x2="18.4162" y2="214.358" stroke="#686868" stroke-width="2"/>
<line x1="11.4162" y1="208.358" x2="16.4162" y2="208.358" stroke="#686868" stroke-width="2"/>
<line x1="9.41621" y1="202.358" x2="18.4162" y2="202.358" stroke="#686868" stroke-width="2"/>
<line x1="11.4162" y1="196.358" x2="16.4162" y2="196.358" stroke="#686868" stroke-width="2"/>
<line x1="9.41621" y1="190.358" x2="18.4162" y2="190.358" stroke="#686868" stroke-width="2"/>
<line x1="11.4162" y1="184.358" x2="16.4162" y2="184.358" stroke="#686868" stroke-width="2"/>
<line x1="9.41621" y1="178.358" x2="18.4162" y2="178.358" stroke="#686868" stroke-width="2"/>
<line x1="11.4162" y1="172.358" x2="16.4162" y2="172.358" stroke="#686868" stroke-width="2"/>
<line x1="9.41621" y1="166.358" x2="18.4162" y2="166.358" stroke="#686868" stroke-width="2"/>
<line x1="11.4162" y1="160.358" x2="16.4162" y2="160.358" stroke="#686868" stroke-width="2"/>
<line x1="9.41621" y1="154.358" x2="18.4162" y2="154.358" stroke="#686868" stroke-width="2"/>
<line x1="11.4162" y1="148.358" x2="16.4162" y2="148.358" stroke="#686868" stroke-width="2"/>
<line x1="9.41621" y1="142.358" x2="18.4162" y2="142.358" stroke="#686868" stroke-width="2"/>
<line x1="11.4162" y1="136.358" x2="16.4162" y2="136.358" stroke="#686868" stroke-width="2"/>
<line x1="9.41621" y1="130.358" x2="18.4162" y2="130.358" stroke="#686868" stroke-width="2"/>
<line x1="11.4162" y1="124.358" x2="16.4162" y2="124.358" stroke="#686868" stroke-width="2"/>
<line x1="9.41621" y1="118.358" x2="18.4162" y2="118.358" stroke="#686868" stroke-width="2"/>
<line x1="11.4162" y1="112.358" x2="16.4162" y2="112.358" stroke="#686868" stroke-width="2"/>
<line x1="9.41621" y1="106.358" x2="18.4162" y2="106.358" stroke="#686868" stroke-width="2"/>
<line x1="11.4162" y1="100.358" x2="16.4162" y2="100.358" stroke="#686868" stroke-width="2"/>
<line x1="9.41621" y1="94.3577" x2="18.4162" y2="94.3577" stroke="#686868" stroke-width="2"/>
<line x1="11.4162" y1="88.3577" x2="16.4162" y2="88.3577" stroke="#686868" stroke-width="2"/>
<line x1="9.41621" y1="82.3577" x2="18.4162" y2="82.3577" stroke="#686868" stroke-width="2"/>
<line x1="11.4162" y1="76.3577" x2="16.4162" y2="76.3577" stroke="#686868" stroke-width="2"/>
<line x1="9.41621" y1="70.3577" x2="18.4162" y2="70.3577" stroke="#686868" stroke-width="2"/>
<line x1="11.4162" y1="64.3577" x2="16.4162" y2="64.3577" stroke="#686868" stroke-width="2"/>
<line x1="9.41621" y1="58.3577" x2="18.4162" y2="58.3577" stroke="#686868" stroke-width="2"/>
<line x1="11.4162" y1="52.3577" x2="16.4162" y2="52.3577" stroke="#686868" stroke-width="2"/>
<line x1="9.41621" y1="46.3577" x2="18.4162" y2="46.3577" stroke="#686868" stroke-width="2"/>
<line x1="11.4162" y1="40.3577" x2="16.4162" y2="40.3577" stroke="#686868" stroke-width="2"/>
<line x1="9.41621" y1="34.3577" x2="18.4162" y2="34.3577" stroke="#686868" stroke-width="2"/>
<line x1="11.4162" y1="28.3577" x2="16.4162" y2="28.3577" stroke="#686868" stroke-width="2"/>
<line x1="9.41621" y1="22.3577" x2="18.4162" y2="22.3577" stroke="#686868" stroke-width="2"/>
<line x1="11.4162" y1="16.3577" x2="16.4162" y2="16.3577" stroke="#686868" stroke-width="2"/>
<line x1="9.41621" y1="10.3577" x2="18.4162" y2="10.3577" stroke="#686868" stroke-width="2"/>
</svg>
